<svg width="22" height="21" viewBox="0 0 22 21" fill="none" xmlns="http://www.w3.org/2000/svg">
<path d="M19.6257 10.6251H20.6258M17.1256 3.12502L16.6256 3.62502M0.625 10.6251H1.62504M10.6254 0.625V1.62501M3.55407 3.55397L4.2611 4.26098" stroke="#E86400" stroke-width="1.25003" stroke-linecap="round" stroke-linejoin="round"/>
<path d="M4.90934 16.3591V9.9591C4.90934 8.5446 5.5114 7.18804 6.58308 6.18784C7.65476 5.18764 9.10827 4.62573 10.6238 4.62573C12.1394 4.62573 13.5929 5.18764 14.6646 6.18784C15.7363 7.18804 16.3384 8.5446 16.3384 9.9591V16.3591" fill="#E86400"/>
<path d="M2.62354 19.5592C2.62354 19.8421 2.74395 20.1134 2.95828 20.3134C3.17262 20.5135 3.46332 20.6258 3.76644 20.6258H17.4813C17.7844 20.6258 18.0751 20.5135 18.2894 20.3134C18.5037 20.1134 18.6242 19.8421 18.6242 19.5592V18.4925C18.6242 17.9267 18.3833 17.3841 17.9547 16.984C17.526 16.5839 16.9446 16.3591 16.3384 16.3591H4.90934C4.30311 16.3591 3.7217 16.5839 3.29303 16.984C2.86436 17.3841 2.62354 17.9267 2.62354 18.4925V19.5592Z" fill="#E86400"/>
<path d="M10.6238 9.9591V16.3591V9.9591Z" fill="#E86400"/>
</svg>
