<svg width="298" height="218" viewBox="0 0 298 218" fill="none" xmlns="http://www.w3.org/2000/svg">
<ellipse cx="280.431" cy="43.5092" rx="17.4312" ry="13.5092" fill="#E8EAEC"/>
<path d="M246.779 71.8992C246.78 71.8625 246.78 71.8257 246.78 71.789C246.78 59.7553 234.293 50 218.89 50C203.487 50 191 59.7553 191 71.789C191 79.8378 196.586 86.8674 204.895 90.6403C202.136 95.0805 200.587 100.07 200.587 105.344C200.587 123.876 219.707 138.899 243.294 138.899C266.88 138.899 286 123.876 286 105.344C286 87.7342 268.735 73.2927 246.779 71.8992Z" fill="#E8EAEC"/>
<path d="M100.458 147.612C100.458 151.224 99.4627 154.655 97.6754 157.745C110.742 163.216 119.592 173.765 119.592 185.881C119.592 203.62 100.623 218 77.2226 218C56.499 218 39.2505 206.722 35.5755 191.82C34.2209 191.96 32.839 192.032 31.4357 192.032C14.0743 192.032 0 181.017 0 167.43C0 153.843 14.0743 142.828 31.4357 142.828C33.705 142.828 35.9181 143.016 38.0509 143.374C40.6173 131.806 53.5071 123.01 69.0219 123.01C86.3834 123.01 100.458 134.024 100.458 147.612Z" fill="#E8EAEC"/>
<path fill-rule="evenodd" clip-rule="evenodd" d="M146.151 54.1833V13.62L156.105 35.5967L144.097 95.6357C143.704 97.6025 144.174 99.6437 145.386 101.241L183.678 151.675L159.749 187.248H69.0065C65.8451 187.248 63.9331 183.753 65.6379 181.091L145.52 56.3403C145.932 55.6965 146.151 54.9479 146.151 54.1833ZM171.802 187.248H259.387C262.551 187.248 264.462 183.748 262.752 181.085L182.606 56.3421C182.192 55.6972 181.971 54.9466 181.971 54.18V4C181.971 1.79086 180.18 0 177.971 0H150.96L165.613 32.3506C166.217 33.6848 166.388 35.1751 166.1 36.6113L154.169 96.2705L192.941 147.337C194.751 149.721 194.845 152.994 193.175 155.478L171.802 187.248Z" fill="url(#paint0_linear_948_24370)"/>
<ellipse cx="66.0439" cy="187.476" rx="29.0439" ry="19.4765" fill="#E8EAEC"/>
<defs>
<linearGradient id="paint0_linear_948_24370" x1="164.197" y1="80.2978" x2="164.197" y2="301.373" gradientUnits="userSpaceOnUse">
<stop stop-color="#74A4FF"/>
<stop offset="1" stop-color="#4AE37A"/>
</linearGradient>
</defs>
</svg>
