<svg width="24" height="24" viewBox="0 0 24 24" fill="none" xmlns="http://www.w3.org/2000/svg">
<path d="M11.5258 2.75583C11.5696 2.66729 11.6373 2.59276 11.7213 2.54066C11.8052 2.48855 11.902 2.46094 12.0008 2.46094C12.0996 2.46094 12.1964 2.48855 12.2804 2.54066C12.3643 2.59276 12.432 2.66729 12.4758 2.75583L14.7858 7.43483C14.938 7.7428 15.1626 8.00924 15.4404 8.21128C15.7183 8.41333 16.041 8.54494 16.3808 8.59483L21.5468 9.35083C21.6447 9.36501 21.7367 9.4063 21.8123 9.47003C21.888 9.53376 21.9443 9.61738 21.9748 9.71144C22.0054 9.8055 22.0091 9.90624 21.9854 10.0023C21.9617 10.0983 21.9116 10.1858 21.8408 10.2548L18.1048 13.8928C17.8584 14.1329 17.6741 14.4293 17.5677 14.7565C17.4612 15.0836 17.4359 15.4317 17.4938 15.7708L18.3758 20.9108C18.3931 21.0087 18.3825 21.1094 18.3453 21.2015C18.3081 21.2936 18.2458 21.3734 18.1654 21.4318C18.085 21.4902 17.9898 21.5248 17.8907 21.5317C17.7916 21.5386 17.6925 21.5175 17.6048 21.4708L12.9868 19.0428C12.6825 18.8831 12.344 18.7996 12.0003 18.7996C11.6566 18.7996 11.3181 18.8831 11.0138 19.0428L6.39682 21.4708C6.30915 21.5172 6.21022 21.5381 6.11127 21.5311C6.01233 21.5241 5.91734 21.4894 5.83712 21.431C5.75689 21.3727 5.69466 21.293 5.65748 21.2011C5.6203 21.1091 5.60968 21.0085 5.62682 20.9108L6.50782 15.7718C6.56602 15.4326 6.54081 15.0842 6.43436 14.7569C6.32792 14.4295 6.14343 14.133 5.89682 13.8928L2.16082 10.2558C2.08942 10.1869 2.03882 10.0992 2.01479 10.0029C1.99075 9.90658 1.99426 9.80545 2.0249 9.71102C2.05554 9.6166 2.11209 9.53267 2.1881 9.46881C2.26411 9.40496 2.35653 9.36373 2.45482 9.34983L7.61982 8.59483C7.96008 8.54533 8.28321 8.41389 8.56141 8.21182C8.8396 8.00975 9.06453 7.7431 9.21682 7.43483L11.5258 2.75583Z" stroke="#64768C" stroke-width="1.5" stroke-linecap="round" stroke-linejoin="round"/>
</svg>
