<svg width="24" height="24" viewBox="0 0 24 24" fill="none" xmlns="http://www.w3.org/2000/svg">
<rect width="24" height="24" rx="4" fill="#DAE7FF"/>
<path d="M5.6 18.4762V11.619C5.16 11.619 4.78333 11.4698 4.47 11.1714C4.15667 10.873 4 10.5143 4 10.0952V8.57143C4 8.15238 4.15667 7.79365 4.47 7.49524C4.78333 7.19683 5.16 7.04762 5.6 7.04762H8.16C8.09333 6.93333 8.05 6.8127 8.03 6.68571C8.01 6.55873 8 6.4254 8 6.28571C8 5.65079 8.23333 5.11111 8.7 4.66667C9.16667 4.22222 9.73333 4 10.4 4C10.7067 4 10.9933 4.05397 11.26 4.1619C11.5267 4.26984 11.7733 4.41905 12 4.60952C12.2267 4.40635 12.4733 4.25397 12.74 4.15238C13.0067 4.05079 13.2933 4 13.6 4C14.2667 4 14.8333 4.22222 15.3 4.66667C15.7667 5.11111 16 5.65079 16 6.28571C16 6.4254 15.9867 6.55556 15.96 6.67619C15.9333 6.79683 15.8933 6.92063 15.84 7.04762H18.4C18.84 7.04762 19.2167 7.19683 19.53 7.49524C19.8433 7.79365 20 8.15238 20 8.57143V10.0952C20 10.5143 19.8433 10.873 19.53 11.1714C19.2167 11.4698 18.84 11.619 18.4 11.619V18.4762C18.4 18.8952 18.2433 19.254 17.93 19.5524C17.6167 19.8508 17.24 20 16.8 20H7.2C6.76 20 6.38333 19.8508 6.07 19.5524C5.75667 19.254 5.6 18.8952 5.6 18.4762ZM13.6 5.52381C13.3733 5.52381 13.1833 5.59683 13.03 5.74286C12.8767 5.88889 12.8 6.06984 12.8 6.28571C12.8 6.50159 12.8767 6.68254 13.03 6.82857C13.1833 6.9746 13.3733 7.04762 13.6 7.04762C13.8267 7.04762 14.0167 6.9746 14.17 6.82857C14.3233 6.68254 14.4 6.50159 14.4 6.28571C14.4 6.06984 14.3233 5.88889 14.17 5.74286C14.0167 5.59683 13.8267 5.52381 13.6 5.52381ZM9.6 6.28571C9.6 6.50159 9.67667 6.68254 9.83 6.82857C9.98333 6.9746 10.1733 7.04762 10.4 7.04762C10.6267 7.04762 10.8167 6.9746 10.97 6.82857C11.1233 6.68254 11.2 6.50159 11.2 6.28571C11.2 6.06984 11.1233 5.88889 10.97 5.74286C10.8167 5.59683 10.6267 5.52381 10.4 5.52381C10.1733 5.52381 9.98333 5.59683 9.83 5.74286C9.67667 5.88889 9.6 6.06984 9.6 6.28571ZM5.6 8.57143V10.0952H11.2V8.57143H5.6ZM11.2 18.4762V11.619H7.2V18.4762H11.2ZM12.8 18.4762H16.8V11.619H12.8V18.4762ZM18.4 10.0952V8.57143H12.8V10.0952H18.4Z" fill="#0E62FF"/>
</svg>
