<svg width="20" height="20" viewBox="0 0 20 20" fill="none" xmlns="http://www.w3.org/2000/svg">
<path fill-rule="evenodd" clip-rule="evenodd" d="M7.19653 3.26684L6.19653 1.53479C5.93132 1.07542 5.49448 0.74022 4.98212 0.602934C4.46976 0.465647 3.92385 0.537518 3.46448 0.802734C3.00511 1.06795 2.66992 1.50479 2.53263 2.01715C2.39535 2.52951 2.46722 3.07542 2.73243 3.53479L3.73243 5.26684C3.46722 4.80747 3.03038 4.47227 2.51802 4.33498C2.00566 4.1977 1.45975 4.26957 1.00038 4.53479C0.541013 4.8 0.205816 5.23684 0.0685298 5.7492C-0.0687565 6.26156 0.00311432 6.80747 0.268331 7.26684L4.26833 14.195L3.23024 13.9168C2.72859 13.8076 2.20415 13.8955 1.7655 14.1623C1.32686 14.429 1.0076 14.8543 0.873847 15.35C0.740091 15.8456 0.802074 16.3738 1.04696 16.825C1.29185 17.2762 1.70089 17.616 2.18939 17.774L7.10708 19.0917C9.13746 19.6284 11.0397 19.5232 13.4646 18.1232L15.1966 17.1232C17.0341 16.0623 18.3749 14.315 18.924 12.2655C19.4732 10.2161 19.1857 8.03246 18.1248 6.19499L15.1248 0.998835C14.8596 0.539467 14.4228 0.20427 13.9104 0.0669837C13.3981 -0.0703028 12.8521 0.0015676 12.3928 0.266784C11.9334 0.532001 11.5982 0.968838 11.4609 1.4812C11.3236 1.99356 11.3955 2.53947 11.6607 2.99884L10.6606 1.26684C10.3954 0.807468 9.95858 0.472271 9.44622 0.334984C8.93386 0.197698 8.38795 0.269569 7.92858 0.534785C7.46922 0.800002 7.13402 1.23684 6.99673 1.7492C6.85945 2.26156 6.93132 2.80747 7.19653 3.26684Z" fill="#0E62FF"/>
</svg>
