<svg width="22" height="21" viewBox="0 0 22 21" fill="none" xmlns="http://www.w3.org/2000/svg">
<path d="M19.6257 10.6251H20.6258M17.1256 3.12502L16.6256 3.62502M0.625 10.6251H1.62504M10.6254 0.625V1.62501M3.55407 3.55397L4.2611 4.26098" stroke="#0E62FF" stroke-width="1.25003" stroke-linecap="round" stroke-linejoin="round"/>
<path d="M4.90885 16.3584V9.95837C4.90885 8.54387 5.51091 7.18731 6.58259 6.18711C7.65427 5.18691 9.10778 4.625 10.6234 4.625C12.1389 4.625 13.5924 5.18691 14.6641 6.18711C15.7358 7.18731 16.3379 8.54387 16.3379 9.95837V16.3584" fill="#0E62FF"/>
<path d="M2.62305 19.5584C2.62305 19.8413 2.74346 20.1126 2.9578 20.3127C3.17213 20.5127 3.46283 20.6251 3.76595 20.6251H17.4808C17.7839 20.6251 18.0746 20.5127 18.2889 20.3127C18.5033 20.1126 18.6237 19.8413 18.6237 19.5584V18.4918C18.6237 17.926 18.3828 17.3833 17.9542 16.9833C17.5255 16.5832 16.9441 16.3584 16.3379 16.3584H4.90885C4.30262 16.3584 3.72121 16.5832 3.29254 16.9833C2.86387 17.3833 2.62305 17.926 2.62305 18.4918V19.5584Z" fill="#0E62FF"/>
<path d="M10.6234 9.95837V16.3584V9.95837Z" fill="#0E62FF"/>
</svg>
