<svg width="20" height="20" viewBox="0 0 20 20" fill="none" xmlns="http://www.w3.org/2000/svg">
<path d="M10 20C15.5228 20 20 15.5228 20 10C20 4.47715 15.5228 0 10 0C4.47715 0 0 4.47715 0 10C0 15.5228 4.47715 20 10 20Z" fill="#0E62FF"/>
<path d="M14.8169 11C15.4357 11 15.9102 11.5615 15.6896 12.1397C15.3251 13.0947 14.7202 13.9472 13.9249 14.6099C12.8245 15.5269 11.4323 16.02 10 16C8.5677 16.02 7.1755 15.5269 6.07507 14.6099C5.27981 13.9472 4.67486 13.0947 4.31043 12.1397C4.0898 11.5615 4.56427 11 5.1831 11H14.8169Z" fill="white"/>
<circle cx="7" cy="7" r="1" fill="white"/>
<circle cx="13" cy="7" r="1" fill="white"/>
</svg>
