<svg width="44" height="44" viewBox="0 0 44 44" fill="none" xmlns="http://www.w3.org/2000/svg">
<g clip-path="url(#clip0_4997_16009)">
<path d="M21.1307 5.05953C21.2111 4.89721 21.3352 4.76057 21.489 4.66504C21.6429 4.56951 21.8204 4.51889 22.0015 4.51889C22.1827 4.51889 22.3602 4.56951 22.5141 4.66504C22.6679 4.76057 22.792 4.89721 22.8724 5.05953L27.1074 13.6377C27.3864 14.2023 27.7982 14.6908 28.3075 15.0612C28.8169 15.4316 29.4084 15.6729 30.0315 15.7644L39.5026 17.1504C39.682 17.1764 39.8506 17.2521 39.9893 17.3689C40.128 17.4857 40.2312 17.639 40.2873 17.8115C40.3433 17.9839 40.35 18.1686 40.3066 18.3447C40.2632 18.5207 40.1714 18.6811 40.0416 18.8077L33.1922 25.4774C32.7405 25.9175 32.4025 26.4609 32.2074 27.0607C32.0123 27.6605 31.9658 28.2987 32.0721 28.9204L33.6891 38.3437C33.7207 38.5231 33.7014 38.7077 33.6331 38.8766C33.5649 39.0455 33.4506 39.1918 33.3032 39.2989C33.1558 39.4059 32.9813 39.4694 32.7996 39.482C32.6179 39.4946 32.4363 39.456 32.2756 39.3704L23.8092 34.919C23.2514 34.6261 22.6307 34.4731 22.0006 34.4731C21.3706 34.4731 20.7499 34.6261 20.192 34.919L11.7275 39.3704C11.5668 39.4554 11.3854 39.4937 11.204 39.4808C11.0226 39.4679 10.8485 39.4044 10.7014 39.2974C10.5543 39.1905 10.4402 39.0444 10.3721 38.8758C10.3039 38.7072 10.2845 38.5228 10.3159 38.3437L11.931 28.9222C12.0377 28.3002 11.9915 27.6616 11.7964 27.0614C11.6012 26.4613 11.263 25.9176 10.8109 25.4774L3.96155 18.8095C3.83064 18.6831 3.73787 18.5224 3.69381 18.3458C3.64976 18.1692 3.65618 17.9838 3.71236 17.8107C3.76854 17.6376 3.87221 17.4837 4.01156 17.3667C4.15091 17.2496 4.32034 17.174 4.50055 17.1485L13.9697 15.7644C14.5935 15.6736 15.1859 15.4326 15.696 15.0622C16.206 14.6917 16.6183 14.2029 16.8975 13.6377L21.1307 5.05953Z" stroke="#B1B8C0" stroke-width="1.5" stroke-linecap="round" stroke-linejoin="round"/>
</g>
<defs>
<clipPath id="clip0_4997_16009">
<rect width="44" height="44" fill="white"/>
</clipPath>
</defs>
</svg>
